<svg xmlns="http://www.w3.org/2000/svg" xmlns:xlink="http://www.w3.org/1999/xlink" version="1.1" id="Layer_1" x="0px" y="0px" style="enable-background:new 0 0 300 200;" xml:space="preserve" viewBox="109.34 51.78 81.43 75.79">
<style type="text/css">
	.st0{fill:#BE202E;}
	.st1{fill:#444B4A;}
	.st2{fill:#010101;stroke:#010101;stroke-width:0.25;stroke-miterlimit:10;}
</style>
<g>

	<g>
		<path class="st0" d="M146.78,66.23V62.1c0-0.28-0.15-0.54-0.39-0.68l-3.58-2.07c-0.24-0.14-0.54-0.14-0.79,0l-3.58,2.07    c-0.24,0.14-0.39,0.4-0.39,0.68v4.14c0,0.28,0.15,0.54,0.39,0.68l3.58,2.07c0.24,0.14,0.54,0.14,0.79,0l3.58-2.07    C146.63,66.77,146.78,66.51,146.78,66.23z"/>
		<path class="st0" d="M125.73,82.35l0-4.14c0-0.28-0.15-0.54-0.39-0.68l-3.58-2.07c-0.24-0.14-0.54-0.14-0.79,0l-3.58,2.06    c-0.24,0.14-0.39,0.4-0.39,0.68l0,4.14c0,0.28,0.15,0.54,0.39,0.68l3.58,2.07c0.24,0.14,0.54,0.14,0.79,0l3.58-2.06    C125.58,82.89,125.73,82.63,125.73,82.35z"/>
		<path class="st1" d="M134.6,61.61v-3.31c0-0.23-0.12-0.43-0.32-0.55l-2.87-1.66c-0.2-0.11-0.44-0.11-0.63,0l-2.87,1.66    c-0.2,0.11-0.32,0.32-0.32,0.55v3.31c0,0.23,0.12,0.43,0.32,0.55l2.87,1.66c0.2,0.11,0.44,0.11,0.63,0l2.87-1.66    C134.48,62.04,134.6,61.83,134.6,61.61z"/>
		<path class="st1" d="M120.14,71.42l0-3.31c0-0.23-0.12-0.43-0.31-0.55l-2.87-1.66c-0.19-0.11-0.44-0.11-0.63,0l-2.87,1.65    c-0.2,0.11-0.32,0.32-0.32,0.55l0,3.31c0,0.23,0.12,0.43,0.31,0.55l2.87,1.66c0.2,0.11,0.44,0.11,0.63,0l2.87-1.65    C120.02,71.85,120.14,71.64,120.14,71.42z"/>
		<path class="st0" d="M135,71.07l0-2.58c0-0.18-0.09-0.34-0.24-0.43l-2.23-1.29c-0.15-0.09-0.34-0.09-0.49,0l-2.24,1.29    c-0.15,0.09-0.25,0.25-0.25,0.42l0,2.58c0,0.18,0.09,0.34,0.25,0.43l2.23,1.29c0.15,0.09,0.34,0.09,0.49,0l2.24-1.29    C134.91,71.4,135,71.24,135,71.07z"/>
		<path class="st0" d="M125.57,63.32v-1.95c0-0.13-0.07-0.25-0.19-0.32l-1.69-0.97c-0.11-0.07-0.26-0.07-0.37,0l-1.69,0.97    c-0.11,0.07-0.19,0.19-0.19,0.32v1.95c0,0.13,0.07,0.25,0.19,0.32l1.69,0.97c0.11,0.07,0.26,0.07,0.37,0l1.69-0.97    C125.5,63.57,125.57,63.45,125.57,63.32z"/>
		<path class="st1" d="M127.66,70.84l0-1.95c0-0.13-0.07-0.25-0.18-0.32l-1.68-0.97c-0.11-0.07-0.26-0.07-0.37,0l-1.69,0.97    c-0.11,0.07-0.19,0.19-0.19,0.32l0,1.95c0,0.13,0.07,0.25,0.18,0.32l1.68,0.97c0.11,0.07,0.26,0.07,0.37,0l1.69-0.97    C127.59,71.09,127.66,70.97,127.66,70.84z"/>
		<path class="st1" d="M124.05,54.05v-1.34c0-0.09-0.05-0.18-0.13-0.22l-1.16-0.67c-0.08-0.05-0.18-0.05-0.26,0l-1.16,0.67    c-0.08,0.05-0.13,0.13-0.13,0.22v1.34c0,0.09,0.05,0.18,0.13,0.22l1.16,0.67c0.08,0.05,0.18,0.05,0.26,0l1.16-0.67    C124,54.22,124.05,54.14,124.05,54.05z"/>
		<path class="st0" d="M115.08,54.05v-1.34c0-0.09-0.05-0.18-0.13-0.22l-1.16-0.67c-0.08-0.05-0.18-0.05-0.26,0l-1.16,0.67    c-0.08,0.05-0.13,0.13-0.13,0.22v1.34c0,0.09,0.05,0.18,0.13,0.22l1.16,0.67c0.08,0.05,0.18,0.05,0.26,0l1.16-0.67    C115.03,54.22,115.08,54.14,115.08,54.05z"/>
		<path class="st0" d="M112.18,64.61v-1.34c0-0.09-0.05-0.18-0.13-0.22l-1.16-0.67c-0.08-0.05-0.18-0.05-0.26,0l-1.16,0.67    c-0.08,0.05-0.13,0.13-0.13,0.22v1.34c0,0.09,0.05,0.18,0.13,0.22l1.16,0.67c0.08,0.05,0.18,0.05,0.26,0l1.16-0.67    C112.13,64.79,112.18,64.7,112.18,64.61z"/>
		<path class="st1" d="M119.64,63.01v-1.34c0-0.09-0.05-0.18-0.13-0.22l-1.16-0.67c-0.08-0.05-0.18-0.05-0.26,0l-1.16,0.67    c-0.08,0.05-0.13,0.13-0.13,0.22v1.34c0,0.09,0.05,0.18,0.13,0.22l1.16,0.67c0.08,0.05,0.18,0.05,0.26,0l1.16-0.67    C119.59,63.19,119.64,63.1,119.64,63.01z"/>
		<g>
			<path class="st0" d="M138.47,98.36l-10.34-17.99l0,1.99c0,1.13-0.61,2.18-1.59,2.74l-3.44,1.98l-0.02,18.86     c0,1.63,0.87,3.14,2.29,3.95l13.1,7.49V98.36z"/>
			<path class="st1" d="M156.18,84.18v28.56h-5.02V86.1l3.83-6.64h19.54c-0.4-0.74-0.99-1.36-1.74-1.79l-4.54-2.6l-5.43-3.11     l-2.43-1.39l-9.03-5.17c-0.67-0.38-1.41-0.58-2.15-0.59l0,1.39c0,1.08-0.56,2.1-1.47,2.67l-5.77,2.53     c-0.39-0.06-0.77-0.19-1.12-0.39l-1.91-1.11l-1.54,0.88l0,0.3c0,1.02-0.55,1.98-1.44,2.49l-1.07,0.62l-0.21,0.12l-0.64,0.37     l-0.32,0.18c-0.02,0.01-0.05,0.03-0.07,0.04c-0.42,0.23-0.89,0.34-1.37,0.34c-0.5,0-1-0.13-1.44-0.39l-0.3-0.17l-2.98,1.7     c0.37,0.53,0.58,1.16,0.57,1.82l0,1.25h5.25l7.61,13.3l4.92-8.58l2.71-4.72h5.78l-3.24,5.62l-7.66,13.28v21.9l3.31,1.89     c1.39,0.8,3.11,0.8,4.51,0l1.77-1.01l8.55-4.87l4.54-2.59l5.67-3.23l0.91-0.52c1.42-0.81,2.29-2.31,2.29-3.94l0.02-21.83H156.18z     "/>
		</g>
	</g>
	<rect x="110.35" y="127.45" class="st2" width="80.3" height="0"/>
</g>
</svg>